400-full-bakup.ufo
<glyph name="quotedbl" format="1">
  <advance width="823"/>
  <unicode hex="0022"/>
  <outline>
    <contour>
      <point x="201" y="928" type="line"/>
      <point x="276" y="928" type="line"/>
      <point x="399" y="1560" type="line"/>
      <point x="201" y="1560" type="line"/>
    </contour>
    <contour>
      <point x="487" y="928" type="line"/>
      <point x="563" y="928" type="line"/>
      <point x="675" y="1560" type="line"/>
      <point x="487" y="1560" type="line"/>
    </contour>
  </outline>
</glyph>
<glyph name="numbersign" format="1">
  <advance width="1164"/>
  <unicode hex="0023"/>
  <outline>
    <contour>
      <point x="170" y="-20" type="line"/>
      <point x="273" y="-20" type="line"/>
      <point x="367" y="442" type="line"/>
      <point x="670" y="442" type="line"/>
      <point x="578" y="-20" type="line"/>
      <point x="679" y="-20" type="line"/>
      <point x="772" y="442" type="line"/>
      <point x="1004" y="442" type="line"/>
      <point x="1019" y="536" type="line"/>
      <point x="792" y="536" type="line"/>
      <point x="885" y="992" type="line"/>
      <point x="1100" y="992" type="line"/>
      <point x="1115" y="1083" type="line"/>
      <point x="903" y="1083" type="line"/>
      <point x="1006" y="1559" type="line"/>
      <point x="906" y="1559" type="line"/>
      <point x="802" y="1083" type="line"/>
      <point x="498" y="1083" type="line"/>
      <point x="601" y="1559" type="line"/>
      <point x="496" y="1559" type="line"/>
      <point x="393" y="1083" type="line"/>
      <point x="190" y="1083" type="line"/>
      <point x="177" y="992" type="line"/>
      <point x="374" y="992" type="line"/>
      <point x="281" y="536" type="line"/>
      <point x="78" y="536" type="line"/>
      <point x="65" y="442" type="line"/>
      <point x="263" y="442" type="line"/>
    </contour>
    <contour>
      <point x="385" y="536" type="line"/>
      <point x="479" y="992" type="line"/>
      <point x="783" y="992" type="line"/>
      <point x="690" y="536" type="line"/>
    </contour>
  </outline>
</glyph>
<glyph name="ampersand" format="1">
  <advance width="1420"/>
  <unicode hex="0026"/>
  <outline>
    <contour>
      <point x="1203" y="-20" type="line"/>
      <point x="1292" y="77" type="line"/>
      <point x="598" y="755" type="line"/>
      <point x="770" y="849"/>
      <point x="948" y="946"/>
      <point x="948" y="1164" type="curve" smooth="yes"/>
      <point x="948" y="1366"/>
      <point x="803" y="1473"/>
      <point x="601" y="1476" type="curve" smooth="yes"/>
      <point x="377" y="1479"/>
      <point x="220" y="1348"/>
      <point x="220" y="1156" type="curve" smooth="yes"/>
      <point x="220" y="1034"/>
      <point x="261" y="924"/>
      <point x="395" y="784" type="curve"/>
      <point x="188" y="682"/>
      <point x="77" y="580"/>
      <point x="95" y="342" type="curve" smooth="yes"/>
      <point x="110" y="141"/>
      <point x="283" y="-20"/>
      <point x="545" y="-20" type="curve" smooth="yes"/>
      <point x="1018" y="-20"/>
      <point x="1212" y="451"/>
      <point x="1332" y="692" type="curve"/>
      <point x="1332" y="692"/>
      <point x="1226" y="760"/>
      <point x="1226" y="760" type="curve"/>
      <point x="954" y="236"/>
      <point x="799" y="114"/>
      <point x="571" y="114" type="curve" smooth="yes"/>
      <point x="381" y="114"/>
      <point x="269" y="213"/>
      <point x="255" y="358" type="curve" smooth="yes"/>
      <point x="239" y="528"/>
      <point x="314" y="608"/>
      <point x="477" y="695" type="curve"/>
    </contour>
    <contour>
      <point x="515" y="846" type="curve"/>
      <point x="400" y="980"/>
      <point x="363" y="1062"/>
      <point x="363" y="1156" type="curve" smooth="yes"/>
      <point x="363" y="1274"/>
      <point x="466" y="1357"/>
      <point x="603" y="1354" type="curve" smooth="yes"/>
      <point x="732" y="1351"/>
      <point x="799" y="1279"/>
      <point x="799" y="1159" type="curve" smooth="yes"/>
      <point x="799" y="1002"/>
      <point x="662" y="924"/>
    </contour>
  </outline>
</glyph>
<glyph name="quotesingle" format="1">
  <advance width="596"/>
  <unicode hex="0027"/>
  <outline>
    <contour>
      <point x="226" y="980" type="line"/>
      <point x="317" y="980" type="line"/>
      <point x="391" y="1560" type="line"/>
      <point x="226" y="1560" type="line"/>
    </contour>
  </outline>
</glyph>
<glyph name="comma" format="1">
  <advance width="624"/>
  <unicode hex="002C"/>
  <outline>
    <contour>
      <point x="194" y="-300" type="line"/>
      <point x="291" y="-300" type="line"/>
      <point x="408" y="152" type="line"/>
      <point x="408" y="235" type="line"/>
      <point x="235" y="235" type="line"/>
    </contour>
  </outline>
</glyph>
<glyph name="period" format="1">
  <advance width="624"/>
  <unicode hex="002E"/>
  <outline>
    <contour>
      <point x="316" y="-11" type="curve" smooth="yes"/>
      <point x="386" y="-11"/>
      <point x="415" y="32"/>
      <point x="415" y="108" type="curve" smooth="yes"/>
      <point x="415" y="181"/>
      <point x="386" y="223"/>
      <point x="316" y="223" type="curve" smooth="yes"/>
      <point x="242" y="223"/>
      <point x="214" y="181"/>
      <point x="214" y="108" type="curve" smooth="yes"/>
      <point x="214" y="32"/>
      <point x="242" y="-11"/>
    </contour>
    <contour>
      <point x="308" y="103" type="move" name="_mid"/>
    </contour>
  </outline>
</glyph>
<glyph name="four" format="1">
  <advance width="1248"/>
  <unicode hex="0034"/>
  <outline>
    <contour>
      <point x="785" y="0" type="line"/>
      <point x="948" y="0" type="line"/>
      <point x="948" y="377" type="line"/>
      <point x="1105" y="377" type="line"/>
      <point x="1117" y="513" type="line"/>
      <point x="948" y="513" type="line"/>
      <point x="948" y="1456" type="line"/>
      <point x="774" y="1456" type="line"/>
      <point x="138" y="515" type="line"/>
      <point x="188" y="377" type="line"/>
      <point x="785" y="377" type="line"/>
    </contour>
    <contour>
      <point x="311" y="513" type="line"/>
      <point x="785" y="1246" type="line"/>
      <point x="785" y="513" type="line"/>
    </contour>
  </outline>
</glyph>
<glyph name="six" format="1">
  <advance width="1248"/>
  <unicode hex="0036"/>
  <outline>
    <contour>
      <point x="648" y="-20" type="curve" smooth="yes"/>
      <point x="935" y="-20"/>
      <point x="1117" y="188"/>
      <point x="1117" y="445" type="curve" smooth="yes"/>
      <point x="1117" y="711"/>
      <point x="940" y="891"/>
      <point x="708" y="891" type="curve" smooth="yes"/>
      <point x="534" y="891"/>
      <point x="428" y="793"/>
      <point x="361" y="713" type="curve"/>
      <point x="371" y="706" type="line"/>
      <point x="571" y="984" type="line" smooth="yes"/>
      <point x="901" y="1435" type="line"/>
      <point x="901" y="1456" type="line"/>
      <point x="728" y="1456" type="line"/>
      <point x="393" y="1001" type="line" smooth="yes"/>
      <point x="254" y="812"/>
      <point x="174" y="667"/>
      <point x="174" y="448" type="curve" smooth="yes"/>
      <point x="174" y="204"/>
      <point x="346" y="-20"/>
    </contour>
    <contour>
      <point x="644" y="114" type="curve" smooth="yes"/>
      <point x="441" y="114"/>
      <point x="333" y="266"/>
      <point x="333" y="438" type="curve" smooth="yes"/>
      <point x="333" y="681"/>
      <point x="520" y="759"/>
      <point x="650" y="759" type="curve" smooth="yes"/>
      <point x="846" y="759"/>
      <point x="956" y="625"/>
      <point x="956" y="444" type="curve" smooth="yes"/>
      <point x="956" y="270"/>
      <point x="847" y="114"/>
    </contour>
  </outline>
</glyph>
<glyph name="semicolon" format="1">
  <advance width="710"/>
  <unicode hex="003B"/>
  <outline>
    <contour>
      <point x="211" y="-260" type="curve"/>
      <point x="308" y="-300" type="line"/>
      <point x="349" y="-245"/>
      <point x="465" y="37"/>
      <point x="465" y="235" type="curve"/>
      <point x="292" y="235" type="line"/>
      <point x="281" y="70"/>
      <point x="254" y="-95"/>
    </contour>
    <contour>
      <point x="372" y="837" type="curve" smooth="yes"/>
      <point x="454" y="837"/>
      <point x="489" y="897"/>
      <point x="489" y="959" type="curve" smooth="yes"/>
      <point x="489" y="1019"/>
      <point x="454" y="1082"/>
      <point x="372" y="1082" type="curve" smooth="yes"/>
      <point x="289" y="1082"/>
      <point x="251" y="1019"/>
      <point x="251" y="959" type="curve" smooth="yes"/>
      <point x="251" y="897"/>
      <point x="290" y="837"/>
    </contour>
  </outline>
</glyph>
<glyph name="C" format="1">
  <advance width="1417"/>
  <unicode hex="0043"/>
  <outline>
    <contour>
      <point x="430" y="1493"/>
      <point x="156" y="1219"/>
      <point x="156" y="729" type="curve" smooth="yes"/>
      <point x="156" y="239"/>
      <point x="430" y="-35"/>
      <point x="830" y="-19" type="curve" smooth="yes"/>
      <point x="1029" y="-11"/>
      <point x="1278" y="101"/>
      <point x="1331" y="354" type="curve"/>
      <point x="1205" y="399" type="line"/>
      <point x="1190" y="399" type="line"/>
      <point x="1156" y="244"/>
      <point x="1000" y="132"/>
      <point x="837" y="124" type="curve" smooth="yes"/>
      <point x="534" y="110"/>
      <point x="333" y="315"/>
      <point x="333" y="729" type="curve" smooth="yes"/>
      <point x="333" y="1143"/>
      <point x="534" y="1348"/>
      <point x="837" y="1334" type="curve" smooth="yes"/>
      <point x="1000" y="1326"/>
      <point x="1152" y="1214"/>
      <point x="1186" y="1059" type="curve"/>
      <point x="1201" y="1059" type="line"/>
      <point x="1327" y="1104" type="line"/>
      <point x="1274" y="1357"/>
      <point x="1029" y="1469"/>
      <point x="830" y="1477" type="curve" smooth="yes"/>
    </contour>
    <contour>
      <point x="784" y="1" type="move" name="bot"/>
    </contour>
    <contour>
      <point x="764" y="1456" type="move" name="top"/>
    </contour>
  </outline>
</glyph>
<glyph name="F" format="1">
  <advance width="1206"/>
  <unicode hex="0046"/>
  <outline>
    <contour>
      <point x="206" y="1456" type="line"/>
      <point x="206" y="0" type="line"/>
      <point x="382" y="0" type="line"/>
      <point x="382" y="718" type="line"/>
      <point x="300" y="666" type="line"/>
      <point x="1064" y="666" type="line"/>
      <point x="1064" y="797" type="line"/>
      <point x="307" y="797" type="line"/>
      <point x="382" y="748" type="line"/>
      <point x="382" y="1385" type="line"/>
      <point x="307" y="1318" type="line"/>
      <point x="1159" y="1318" type="line"/>
      <point x="1169" y="1456" type="line"/>
    </contour>
    <contour>
      <point x="739" y="1456" type="move" name="top"/>
    </contour>
  </outline>
</glyph>
<glyph name="H" format="1">
  <advance width="1536"/>
  <unicode hex="0048"/>
  <outline>
    <contour>
      <point x="1150" y="1456" type="line"/>
      <point x="1150" y="780" type="line"/>
      <point x="1200" y="820" type="line"/>
      <point x="321" y="820" type="line"/>
      <point x="386" y="780" type="line"/>
      <point x="386" y="1456" type="line"/>
      <point x="210" y="1456" type="line"/>
      <point x="210" y="0" type="line"/>
      <point x="386" y="0" type="line"/>
      <point x="386" y="723" type="line"/>
      <point x="326" y="678" type="line"/>
      <point x="1201" y="678" type="line"/>
      <point x="1150" y="723" type="line"/>
      <point x="1150" y="0" type="line"/>
      <point x="1326" y="0" type="line"/>
      <point x="1326" y="1456" type="line"/>
    </contour>
    <contour>
      <point x="781" y="1456" type="move" name="top"/>
    </contour>
    <contour>
      <point x="778" y="1206" type="move" name="mid"/>
    </contour>
  </outline>
</glyph>
<glyph name="M" format="1">
  <advance width="1806"/>
  <unicode hex="004D"/>
  <outline>
    <contour>
      <point x="186" y="0" type="line"/>
      <point x="352" y="0" type="line"/>
      <point x="352" y="471" type="line"/>
      <point x="361" y="1314" type="line"/>
      <point x="331" y="1304" type="line"/>
      <point x="827" y="167" type="line"/>
      <point x="978" y="167" type="line"/>
      <point x="1483" y="1303" type="line"/>
      <point x="1447" y="1315" type="line"/>
      <point x="1456" y="474" type="line"/>
      <point x="1456" y="0" type="line"/>
      <point x="1620" y="0" type="line"/>
      <point x="1620" y="472" type="line"/>
      <point x="1596" y="1456" type="line"/>
      <point x="1386" y="1456" type="line"/>
      <point x="882" y="318" type="line"/>
      <point x="926" y="318" type="line"/>
      <point x="426" y="1456" type="line"/>
      <point x="210" y="1456" type="line"/>
      <point x="186" y="472" type="line"/>
    </contour>
    <contour>
      <point x="918" y="1456" type="move" name="top"/>
    </contour>
  </outline>
</glyph>
<glyph name="Q" format="1">
  <advance width="1590"/>
  <unicode hex="0051"/>
  <outline>
    <contour>
      <point x="831" y="33" type="line"/>
      <point x="1157" y="-431" type="line"/>
      <point x="1270" y="-352" type="line"/>
      <point x="980" y="60" type="line"/>
    </contour>
    <component base="O"/>
  </outline>
</glyph>
<glyph name="T" format="1">
  <advance width="1136"/>
  <unicode hex="0054"/>
  <outline>
    <contour>
      <point x="2" y="1456" type="line"/>
      <point x="2" y="1319" type="line"/>
      <point x="533" y="1319" type="line"/>
      <point x="479" y="1384" type="line"/>
      <point x="479" y="0" type="line"/>
      <point x="655" y="0" type="line"/>
      <point x="655" y="1387" type="line"/>
      <point x="596" y="1319" type="line"/>
      <point x="1134" y="1319" type="line"/>
      <point x="1134" y="1456" type="line"/>
    </contour>
    <contour>
      <point x="572" y="0" type="move" name="bot"/>
    </contour>
    <contour>
      <point x="571" y="1456" type="move" name="top"/>
    </contour>
    <contour>
      <point x="572" y="774" type="move" name="mid"/>
    </contour>
  </outline>
</glyph>
<glyph name="W" format="1">
  <advance width="1972"/>
  <unicode hex="0057"/>
  <outline>
    <contour>
      <point x="1722" y="1456" type="line"/>
      <point x="1722" y="1456"/>
      <point x="1414" y="166"/>
      <point x="1414" y="166" type="curve"/>
      <point x="1444" y="166" type="line"/>
      <point x="1081" y="1425" type="line"/>
      <point x="911" y="1425" type="line"/>
      <point x="541" y="167" type="line"/>
      <point x="580" y="167" type="line"/>
      <point x="580" y="167"/>
      <point x="235" y="1456"/>
      <point x="235" y="1456" type="curve"/>
      <point x="80" y="1456" type="line"/>
      <point x="80" y="1456"/>
      <point x="471" y="0"/>
      <point x="471" y="0" type="curve"/>
      <point x="638" y="0" type="line"/>
      <point x="1025" y="1303" type="line"/>
      <point x="972" y="1303" type="line"/>
      <point x="1343" y="0" type="line"/>
      <point x="1514" y="0" type="line"/>
      <point x="1514" y="0"/>
      <point x="1892" y="1456"/>
      <point x="1892" y="1456" type="curve"/>
    </contour>
    <contour>
      <point x="995" y="0" type="move" name="bot"/>
    </contour>
    <contour>
      <point x="998" y="1456" type="move" name="top"/>
    </contour>
  </outline>
</glyph>
<glyph name="a" format="1">
  <advance width="1116"/>
  <unicode hex="0061"/>
  <outline>
    <contour>
      <point x="437" y="-20" type="curve" smooth="yes"/>
      <point x="633" y="-29"/>
      <point x="766" y="45"/>
      <point x="865" y="216" type="curve"/>
      <point x="803" y="205" type="line"/>
      <point x="819" y="0" type="line"/>
      <point x="960" y="0" type="line"/>
      <point x="960" y="712" type="line" smooth="yes"/>
      <point x="960" y="1001"/>
      <point x="793" y="1106"/>
      <point x="552" y="1106" type="curve" smooth="yes"/>
      <point x="409" y="1106"/>
      <point x="258" y="1075"/>
      <point x="154" y="1006" type="curve"/>
      <point x="205" y="876" type="line"/>
      <point x="307" y="948"/>
      <point x="449" y="980"/>
      <point x="553" y="980" type="curve" smooth="yes"/>
      <point x="716" y="980"/>
      <point x="796" y="902"/>
      <point x="796" y="722" type="curve" smooth="yes"/>
      <point x="796" y="565" type="line"/>
      <point x="840" y="592" type="line"/>
      <point x="555" y="595" type="line" smooth="yes"/>
      <point x="237" y="598"/>
      <point x="116" y="482"/>
      <point x="116" y="293" type="curve" smooth="yes"/>
      <point x="116" y="92"/>
      <point x="246" y="-11"/>
    </contour>
    <contour>
      <point x="445" y="104" type="curve" smooth="yes"/>
      <point x="352" y="113"/>
      <point x="274" y="167"/>
      <point x="274" y="292" type="curve" smooth="yes"/>
      <point x="274" y="415"/>
      <point x="342" y="483"/>
      <point x="571" y="482" type="curve" smooth="yes"/>
      <point x="826" y="481" type="line"/>
      <point x="796" y="528" type="line"/>
      <point x="796" y="207" type="line"/>
      <point x="813" y="276" type="line"/>
      <point x="737" y="161"/>
      <point x="605" y="89"/>
    </contour>
    <contour>
      <point x="562" y="1083" type="move" name="top"/>
    </contour>
    <contour>
      <point x="899" y="1" type="move" name="ogonek"/>
    </contour>
    <contour>
      <point x="485" y="1" type="move" name="bot"/>
    </contour>
  </outline>
</glyph>
<glyph name="b" format="1">
  <advance width="1205"/>
  <unicode hex="0062"/>
  <outline>
    <contour>
      <point x="626" y="-20" type="curve" smooth="yes"/>
      <point x="921" y="-20"/>
      <point x="1089" y="204"/>
      <point x="1089" y="542" type="curve" smooth="yes"/>
      <point x="1089" y="880"/>
      <point x="950" y="1118"/>
      <point x="640" y="1106" type="curve" smooth="yes"/>
      <point x="528" y="1102"/>
      <point x="365" y="1051"/>
      <point x="303" y="805" type="curve"/>
      <point x="324" y="803" type="line"/>
      <point x="332" y="1105" type="line"/>
      <point x="332" y="1560" type="line"/>
      <point x="168" y="1540" type="line"/>
      <point x="168" y="0" type="line"/>
      <point x="299" y="0" type="line"/>
      <point x="319" y="200" type="line"/>
      <point x="260" y="193" type="line"/>
      <point x="312" y="75"/>
      <point x="441" y="-20"/>
    </contour>
    <contour>
      <point x="622" y="106" type="curve" smooth="yes"/>
      <point x="502" y="106"/>
      <point x="394" y="150"/>
      <point x="325" y="246" type="curve"/>
      <point x="325" y="558" type="line" smooth="yes"/>
      <point x="325" y="808"/>
      <point x="415" y="980"/>
      <point x="642" y="980" type="curve" smooth="yes"/>
      <point x="856" y="980"/>
      <point x="920" y="791"/>
      <point x="920" y="541" type="curve" smooth="yes"/>
      <point x="920" y="277"/>
      <point x="832" y="106"/>
    </contour>
    <contour>
      <point x="649" y="1082" type="move" name="top"/>
    </contour>
  </outline>
</glyph>
<glyph name="c" format="1">
  <advance width="1072"/>
  <unicode hex="0063"/>
  <outline>
    <contour>
      <point x="870" y="263" type="line"/>
      <point x="818" y="172"/>
      <point x="749" y="106"/>
      <point x="608" y="106" type="curve" smooth="yes"/>
      <point x="392" y="106"/>
      <point x="286" y="271"/>
      <point x="286" y="543" type="curve" smooth="yes"/>
      <point x="286" y="815"/>
      <point x="392" y="980"/>
      <point x="608" y="980" type="curve" smooth="yes"/>
      <point x="749" y="980"/>
      <point x="819" y="911"/>
      <point x="871" y="820" type="curve"/>
      <point x="885" y="820" type="line"/>
      <point x="987" y="879" type="line"/>
      <point x="944" y="982"/>
      <point x="842" y="1106"/>
      <point x="601" y="1106" type="curve" smooth="yes"/>
      <point x="305" y="1106"/>
      <point x="116" y="888"/>
      <point x="116" y="543" type="curve" smooth="yes"/>
      <point x="116" y="198"/>
      <point x="305" y="-20"/>
      <point x="601" y="-20" type="curve" smooth="yes"/>
      <point x="842" y="-20"/>
      <point x="945" y="104"/>
      <point x="987" y="207" type="curve"/>
      <point x="884" y="263" type="line"/>
    </contour>
    <contour>
      <point x="618" y="1083" type="move" name="top"/>
    </contour>
    <contour>
      <point x="599" y="1" type="move" name="bot"/>
    </contour>
  </outline>
</glyph>
<glyph name="e" format="1">
  <advance width="1129.359"/>
  <unicode hex="0065"/>
  <outline>
    <contour>
      <point x="628" y="-20" type="curve" smooth="yes"/>
      <point x="777" y="-20"/>
      <point x="902" y="24"/>
      <point x="992" y="84" type="curve"/>
      <point x="953" y="197" type="line"/>
      <point x="941" y="197" type="line"/>
      <point x="851" y="146"/>
      <point x="774" y="106"/>
      <point x="649" y="106" type="curve" smooth="yes"/>
      <point x="439" y="106"/>
      <point x="284" y="241"/>
      <point x="283" y="567" type="curve"/>
      <point x="232" y="516" type="line"/>
      <point x="1015" y="516" type="line"/>
      <point x="1015" y="516"/>
      <point x="1022" y="576"/>
      <point x="1023" y="602" type="curve" smooth="yes"/>
      <point x="1032" y="914"/>
      <point x="871" y="1106"/>
      <point x="608" y="1106" type="curve" smooth="yes"/>
      <point x="340" y="1106"/>
      <point x="116" y="899"/>
      <point x="116" y="538" type="curve" smooth="yes"/>
      <point x="116" y="190"/>
      <point x="341" y="-20"/>
    </contour>
    <contour>
      <point x="288" y="627" type="line"/>
      <point x="308" y="845"/>
      <point x="437" y="983"/>
      <point x="620" y="980" type="curve" smooth="yes"/>
      <point x="796" y="977"/>
      <point x="879" y="848"/>
      <point x="882" y="627" type="curve"/>
    </contour>
    <contour>
      <point x="907" y="54" type="move" name="ogonek"/>
    </contour>
    <contour>
      <point x="620" y="1" type="move" name="bot"/>
    </contour>
    <contour>
      <point x="617" y="1082" type="move" name="top"/>
    </contour>
  </outline>
</glyph>
<glyph name="g" format="1">
  <advance width="1201"/>
  <unicode hex="0067"/>
  <outline>
    <contour>
      <point x="556" y="-484" type="curve" smooth="yes"/>
      <point x="914" y="-484"/>
      <point x="1037" y="-305"/>
      <point x="1037" y="58" type="curve" smooth="yes"/>
      <point x="1037" y="1082" type="line"/>
      <point x="901" y="1082" type="line"/>
      <point x="886" y="885" type="line"/>
      <point x="945" y="885" type="line"/>
      <point x="893" y="1003"/>
      <point x="775" y="1106"/>
      <point x="590" y="1106" type="curve" smooth="yes"/>
      <point x="295" y="1106"/>
      <point x="116" y="882"/>
      <point x="116" y="544" type="curve" smooth="yes"/>
      <point x="116" y="206"/>
      <point x="282" y="-22"/>
      <point x="592" y="-20" type="curve" smooth="yes"/>
      <point x="704" y="-19"/>
      <point x="876" y="17"/>
      <point x="950" y="198" type="curve"/>
      <point x="881" y="203" type="line"/>
      <point x="881" y="10" type="line" smooth="yes"/>
      <point x="881" y="-268"/>
      <point x="768" y="-351"/>
      <point x="560" y="-351" type="curve" smooth="yes"/>
      <point x="466" y="-351"/>
      <point x="352" y="-330"/>
      <point x="270" y="-294" type="curve"/>
      <point x="248" y="-294" type="line"/>
      <point x="234" y="-427" type="line"/>
      <point x="315" y="-458"/>
      <point x="435" y="-484"/>
    </contour>
    <contour>
      <point x="596" y="106" type="curve" smooth="yes"/>
      <point x="382" y="106"/>
      <point x="285" y="272"/>
      <point x="285" y="545" type="curve" smooth="yes"/>
      <point x="285" y="809"/>
      <point x="384" y="980"/>
      <point x="594" y="980" type="curve" smooth="yes"/>
      <point x="714" y="980"/>
      <point x="811" y="936"/>
      <point x="880" y="840" type="curve"/>
      <point x="880" y="228" type="line"/>
      <point x="821" y="147"/>
      <point x="715" y="106"/>
    </contour>
    <contour>
      <point x="605" y="1082" type="move" name="top"/>
    </contour>
  </outline>
</glyph>
<glyph name="h" format="1">
  <advance width="1201"/>
  <unicode hex="0068"/>
  <outline>
    <contour>
      <point x="168" y="0" type="line"/>
      <point x="331" y="0" type="line"/>
      <point x="331" y="593" type="line" smooth="yes"/>
      <point x="331" y="782"/>
      <point x="407" y="980"/>
      <point x="661" y="980" type="curve" smooth="yes"/>
      <point x="823" y="980"/>
      <point x="883" y="873"/>
      <point x="883" y="664" type="curve" smooth="yes"/>
      <point x="883" y="0" type="line"/>
      <point x="1049" y="0" type="line"/>
      <point x="1049" y="670" type="line" smooth="yes"/>
      <point x="1049" y="948"/>
      <point x="920" y="1106"/>
      <point x="688" y="1106" type="curve" smooth="yes"/>
      <point x="526" y="1106"/>
      <point x="375" y="1046"/>
      <point x="304" y="824" type="curve"/>
      <point x="324" y="815" type="line"/>
      <point x="332" y="1146" type="line"/>
      <point x="332" y="1560" type="line"/>
      <point x="168" y="1540" type="line"/>
    </contour>
    <contour>
      <point x="677" y="1384" type="move" name="top"/>
    </contour>
    <contour>
      <point x="250" y="1284" type="move" name="mid"/>
    </contour>
  </outline>
</glyph>
<glyph name="l" format="1">
  <advance width="635"/>
  <unicode hex="006C"/>
  <outline>
    <contour>
      <point x="455" y="-8" type="curve" smooth="yes"/>
      <point x="523" y="-8" type="line"/>
      <point x="537" y="114" type="line"/>
      <point x="484" y="118" type="line" smooth="yes"/>
      <point x="359" y="127"/>
      <point x="339" y="138"/>
      <point x="339" y="310" type="curve" smooth="yes"/>
      <point x="339" y="1560" type="line"/>
      <point x="175" y="1540" type="line"/>
      <point x="175" y="305" type="line" smooth="yes"/>
      <point x="175" y="39"/>
      <point x="274" y="-8"/>
    </contour>
    <contour>
      <point x="475" y="1082" type="move" name="caron.alt"/>
    </contour>
    <contour>
      <point x="291" y="801" type="move" name="mid"/>
    </contour>
    <contour>
      <point x="348" y="1496.7" type="move" name="top"/>
    </contour>
    <contour>
      <point x="340" y="0.2" type="move" name="bot"/>
    </contour>
  </outline>
</glyph>
<glyph name="o" format="1">
  <advance width="1200"/>
  <unicode hex="006F"/>
  <outline>
    <contour>
      <point x="600" y="106" type="curve"/>
      <point x="379" y="106"/>
      <point x="286" y="294"/>
      <point x="286" y="541" type="curve" smooth="yes"/>
      <point x="286" y="794"/>
      <point x="380" y="980"/>
      <point x="600" y="980" type="curve"/>
      <point x="820" y="980"/>
      <point x="914" y="794"/>
      <point x="914" y="541" type="curve" smooth="yes"/>
      <point x="914" y="294"/>
      <point x="821" y="106"/>
    </contour>
    <contour>
      <point x="600" y="-20" type="curve"/>
      <point x="912" y="-20"/>
      <point x="1084" y="206"/>
      <point x="1084" y="542" type="curve" smooth="yes"/>
      <point x="1084" y="886"/>
      <point x="916" y="1106"/>
      <point x="600" y="1106" type="curve"/>
      <point x="284" y="1106"/>
      <point x="116" y="886"/>
      <point x="116" y="542" type="curve" smooth="yes"/>
      <point x="116" y="206"/>
      <point x="288" y="-20"/>
    </contour>
    <contour>
      <point x="717" y="1" type="move" name="ogonek"/>
    </contour>
    <contour>
      <point x="600" y="1082" type="move" name="top"/>
    </contour>
  </outline>
</glyph>
<glyph name="p" format="1">
  <advance width="1206"/>
  <unicode hex="0070"/>
  <outline>
    <contour>
      <point x="168" y="-456" type="line"/>
      <point x="332" y="-456" type="line"/>
      <point x="332" y="-68" type="line"/>
      <point x="324" y="206" type="line"/>
      <point x="255" y="198" type="line"/>
      <point x="308" y="62"/>
      <point x="439" y="-20"/>
      <point x="630" y="-20" type="curve" smooth="yes"/>
      <point x="913" y="-20"/>
      <point x="1090" y="210"/>
      <point x="1090" y="539" type="curve" smooth="yes"/>
      <point x="1090" y="878"/>
      <point x="954" y="1106"/>
      <point x="661" y="1106" type="curve" smooth="yes"/>
      <point x="490" y="1106"/>
      <point x="357" y="1016"/>
      <point x="310" y="816" type="curve"/>
      <point x="325" y="811" type="line"/>
      <point x="304" y="1082" type="line"/>
      <point x="168" y="1082" type="line"/>
    </contour>
    <contour>
      <point x="622" y="106" type="curve" smooth="yes"/>
      <point x="502" y="106"/>
      <point x="394" y="150"/>
      <point x="325" y="246" type="curve"/>
      <point x="325" y="558" type="line" smooth="yes"/>
      <point x="325" y="808"/>
      <point x="415" y="980"/>
      <point x="642" y="980" type="curve" smooth="yes"/>
      <point x="856" y="980"/>
      <point x="920" y="791"/>
      <point x="920" y="541" type="curve" smooth="yes"/>
      <point x="920" y="277"/>
      <point x="832" y="106"/>
    </contour>
    <contour>
      <point x="666" y="1082" type="move" name="top"/>
    </contour>
  </outline>
</glyph>
<glyph name="t" format="1">
  <advance width="789"/>
  <unicode hex="0074"/>
  <outline>
    <contour>
      <point x="581" y="-8" type="curve" smooth="yes"/>
      <point x="669" y="-8" type="line"/>
      <point x="677" y="109" type="line"/>
      <point x="574" y="113" type="line" smooth="yes"/>
      <point x="409" y="119"/>
      <point x="399" y="150"/>
      <point x="399" y="325" type="curve" smooth="yes"/>
      <point x="399" y="1020" type="line"/>
      <point x="366" y="980" type="line"/>
      <point x="687" y="980" type="line"/>
      <point x="687" y="1082" type="line"/>
      <point x="366" y="1082" type="line"/>
      <point x="399" y="1046" type="line"/>
      <point x="399" y="1382" type="line"/>
      <point x="266" y="1372" type="line"/>
      <point x="236" y="1051" type="line"/>
      <point x="269" y="1082" type="line"/>
      <point x="67" y="1073" type="line"/>
      <point x="63" y="980" type="line"/>
      <point x="265" y="980" type="line"/>
      <point x="235" y="1019" type="line"/>
      <point x="235" y="325" type="line" smooth="yes"/>
      <point x="235" y="69"/>
      <point x="282" y="-8"/>
    </contour>
    <contour>
      <point x="333" y="1202" type="move" name="caron.alt"/>
    </contour>
    <contour>
      <point x="364" y="621" type="move" name="mid"/>
    </contour>
    <contour>
      <point x="325" y="1384" type="move" name="top"/>
    </contour>
    <contour>
      <point x="472" y="0" type="move" name="bot"/>
    </contour>
  </outline>
</glyph>
<glyph name="asciitilde" format="1">
  <advance width="1192"/>
  <unicode hex="007E"/>
  <outline>
    <contour>
      <point x="140" y="491" type="line"/>
      <point x="186" y="579"/>
      <point x="267" y="653"/>
      <point x="355" y="653" type="curve" smooth="yes"/>
      <point x="425" y="653"/>
      <point x="500" y="618"/>
      <point x="604" y="571" type="curve" smooth="yes"/>
      <point x="685" y="534"/>
      <point x="757" y="505"/>
      <point x="826" y="505" type="curve" smooth="yes"/>
      <point x="949" y="505"/>
      <point x="1026" y="582"/>
      <point x="1075" y="706" type="curve"/>
      <point x="1028" y="795" type="line"/>
      <point x="990" y="709"/>
      <point x="910" y="636"/>
      <point x="828" y="636" type="curve" smooth="yes"/>
      <point x="768" y="636"/>
      <point x="689" y="676"/>
      <point x="594" y="717" type="curve"/>
      <point x="494" y="762"/>
      <point x="437" y="785"/>
      <point x="358" y="785" type="curve" smooth="yes"/>
      <point x="230" y="785"/>
      <point x="144" y="698"/>
      <point x="99" y="587" type="curve"/>
    </contour>
  </outline>
</glyph>
<glyph name="currency" format="1">
  <advance width="1164"/>
  <unicode hex="00A4"/>
  <outline>
    <contour>
      <point x="836" y="1038" type="line"/>
      <point x="765" y="1098"/>
      <point x="675" y="1133"/>
      <point x="577" y="1133" type="curve" smooth="yes"/>
      <point x="479" y="1133"/>
      <point x="389" y="1100"/>
      <point x="317" y="1039" type="curve"/>
      <point x="138" y="1212" type="line"/>
      <point x="74" y="1148" type="line"/>
      <point x="256" y="969" type="line"/>
      <point x="202" y="896"/>
      <point x="175" y="810"/>
      <point x="175" y="719" type="curve" smooth="yes"/>
      <point x="175" y="627"/>
      <point x="202" y="542"/>
      <point x="256" y="469" type="curve"/>
      <point x="75" y="293" type="line"/>
      <point x="138" y="226" type="line"/>
      <point x="318" y="400" type="line"/>
      <point x="390" y="339"/>
      <point x="477" y="307"/>
      <point x="577" y="307" type="curve" smooth="yes"/>
      <point x="676" y="307"/>
      <point x="765" y="340"/>
      <point x="836" y="399" type="curve"/>
      <point x="1017" y="225" type="line"/>
      <point x="1077" y="292" type="line"/>
      <point x="899" y="469" type="line"/>
      <point x="952" y="540"/>
      <point x="979" y="625"/>
      <point x="979" y="719" type="curve" smooth="yes"/>
      <point x="979" y="808"/>
      <point x="952" y="893"/>
      <point x="898" y="969" type="curve"/>
      <point x="1078" y="1145" type="line"/>
      <point x="1017" y="1212" type="line"/>
    </contour>
    <contour>
      <point x="883" y="719" type="curve" smooth="yes"/>
      <point x="883" y="546"/>
      <point x="766" y="398"/>
      <point x="577" y="398" type="curve" smooth="yes"/>
      <point x="390" y="398"/>
      <point x="272" y="545"/>
      <point x="272" y="719" type="curve" smooth="yes"/>
      <point x="272" y="892"/>
      <point x="390" y="1041"/>
      <point x="577" y="1041" type="curve" smooth="yes"/>
      <point x="765" y="1041"/>
      <point x="883" y="892"/>
    </contour>
  </outline>
</glyph>
<glyph name="copyright" format="1">
  <advance width="1704"/>
  <unicode hex="00A9"/>
  <outline>
    <contour>
      <point x="773" y="234" type="curve" smooth="yes"/>
      <point x="873" y="234"/>
      <point x="970" y="261"/>
      <point x="1056" y="316" type="curve"/>
      <point x="1022" y="400" type="line"/>
      <point x="936" y="347"/>
      <point x="857" y="329"/>
      <point x="777" y="329" type="curve" smooth="yes"/>
      <point x="576" y="329"/>
      <point x="417" y="483"/>
      <point x="417" y="729" type="curve" smooth="yes"/>
      <point x="417" y="958"/>
      <point x="575" y="1119"/>
      <point x="769" y="1119" type="curve" smooth="yes"/>
      <point x="842" y="1119"/>
      <point x="936" y="1094"/>
      <point x="1010" y="1041" type="curve"/>
      <point x="1053" y="1127" type="line"/>
      <point x="965" y="1186"/>
      <point x="867" y="1215"/>
      <point x="765" y="1215" type="curve" smooth="yes"/>
      <point x="508" y="1215"/>
      <point x="295" y="1005"/>
      <point x="295" y="725" type="curve" smooth="yes"/>
      <point x="295" y="436"/>
      <point x="514" y="234"/>
    </contour>
    <contour>
      <point x="753" y="64" type="curve" smooth="yes"/>
      <point x="419" y="64"/>
      <point x="98" y="295"/>
      <point x="98" y="727" type="curve" smooth="yes"/>
      <point x="98" y="1160"/>
      <point x="419" y="1389"/>
      <point x="753" y="1389" type="curve" smooth="yes"/>
      <point x="1089" y="1389"/>
      <point x="1413" y="1160"/>
      <point x="1413" y="727" type="curve" smooth="yes"/>
      <point x="1413" y="296"/>
      <point x="1089" y="64"/>
    </contour>
    <contour>
      <point x="753" y="-20" type="curve" smooth="yes"/>
      <point x="1135" y="-20"/>
      <point x="1519" y="236"/>
      <point x="1519" y="727" type="curve" smooth="yes"/>
      <point x="1519" y="1220"/>
      <point x="1134" y="1476"/>
      <point x="753" y="1476" type="curve" smooth="yes"/>
      <point x="375" y="1476"/>
      <point x="1" y="1220"/>
      <point x="1" y="727" type="curve" smooth="yes"/>
      <point x="1" y="236"/>
      <point x="375" y="-20"/>
    </contour>
  </outline>
</glyph>
<glyph name="registered" format="1">
  <advance width="1846"/>
  <unicode hex="00AE"/>
  <outline>
    <contour>
      <point x="631" y="292" type="line"/>
      <point x="741" y="292" type="line"/>
      <point x="741" y="721" type="line"/>
      <point x="954" y="721" type="line"/>
      <point x="963" y="710"/>
      <point x="1162" y="292"/>
      <point x="1162" y="292" type="curve"/>
      <point x="1285" y="292" type="line"/>
      <point x="1285" y="292"/>
      <point x="1079" y="713"/>
      <point x="1063" y="735" type="curve"/>
      <point x="1192" y="749"/>
      <point x="1252" y="837"/>
      <point x="1252" y="972" type="curve" smooth="yes"/>
      <point x="1252" y="1134"/>
      <point x="1172" y="1209"/>
      <point x="943" y="1209" type="curve" smooth="yes"/>
      <point x="631" y="1209" type="line"/>
    </contour>
    <contour>
      <point x="742" y="818" type="line"/>
      <point x="742" y="1111" type="line"/>
      <point x="927" y="1111" type="line" smooth="yes"/>
      <point x="1086" y="1111"/>
      <point x="1145" y="1093"/>
      <point x="1145" y="968" type="curve" smooth="yes"/>
      <point x="1145" y="861"/>
      <point x="1102" y="818"/>
      <point x="963" y="818" type="curve" smooth="yes"/>
    </contour>
    <contour>
      <point x="920" y="64" type="curve" smooth="yes"/>
      <point x="594" y="64"/>
      <point x="282" y="295"/>
      <point x="282" y="728" type="curve" smooth="yes"/>
      <point x="282" y="1160"/>
      <point x="594" y="1391"/>
      <point x="920" y="1391" type="curve" smooth="yes"/>
      <point x="1247" y="1391"/>
      <point x="1562" y="1159"/>
      <point x="1562" y="728" type="curve" smooth="yes"/>
      <point x="1562" y="295"/>
      <point x="1247" y="64"/>
    </contour>
    <contour>
      <point x="920" y="-20" type="curve" smooth="yes"/>
      <point x="1291" y="-20"/>
      <point x="1664" y="236"/>
      <point x="1664" y="728" type="curve" smooth="yes"/>
      <point x="1664" y="1219"/>
      <point x="1291" y="1476"/>
      <point x="920" y="1476" type="curve" smooth="yes"/>
      <point x="550" y="1476"/>
      <point x="179" y="1219"/>
      <point x="179" y="728" type="curve" smooth="yes"/>
      <point x="179" y="236"/>
      <point x="550" y="-20"/>
    </contour>
  </outline>
</glyph>
<glyph name="degree" format="1">
  <advance width="880"/>
  <unicode hex="00B0"/>
  <outline>
    <contour>
      <point x="430" y="985" type="curve" smooth="yes"/>
      <point x="324" y="985"/>
      <point x="239" y="1065"/>
      <point x="239" y="1183" type="curve" smooth="yes"/>
      <point x="239" y="1300"/>
      <point x="326" y="1380"/>
      <point x="431" y="1380" type="curve" smooth="yes"/>
      <point x="537" y="1380"/>
      <point x="623" y="1300"/>
      <point x="623" y="1183" type="curve" smooth="yes"/>
      <point x="623" y="1066"/>
      <point x="537" y="985"/>
    </contour>
    <contour>
      <point x="430" y="889" type="curve" smooth="yes"/>
      <point x="594" y="889"/>
      <point x="731" y="1016"/>
      <point x="731" y="1184" type="curve" smooth="yes"/>
      <point x="731" y="1357"/>
      <point x="590" y="1476"/>
      <point x="430" y="1476" type="curve" smooth="yes"/>
      <point x="273" y="1476"/>
      <point x="131" y="1357"/>
      <point x="131" y="1184" type="curve" smooth="yes"/>
      <point x="131" y="1009"/>
      <point x="273" y="889"/>
    </contour>
  </outline>
</glyph>
<glyph name="plusminus" format="1">
  <advance width="1136"/>
  <unicode hex="00B1"/>
  <outline>
    <contour>
      <point x="498" y="1117" type="line"/>
      <point x="498" y="729" type="line"/>
      <point x="126" y="729" type="line"/>
      <point x="126" y="610" type="line"/>
      <point x="498" y="610" type="line"/>
      <point x="498" y="212" type="line"/>
      <point x="624" y="212" type="line"/>
      <point x="624" y="610" type="line"/>
      <point x="989" y="610" type="line"/>
      <point x="989" y="729" type="line"/>
      <point x="623" y="729" type="line"/>
      <point x="623" y="1117" type="line"/>
    </contour>
    <contour>
      <point x="105" y="118" type="line"/>
      <point x="105" y="0" type="line"/>
      <point x="1034" y="0" type="line"/>
      <point x="1034" y="118" type="line"/>
    </contour>
  </outline>
</glyph>
<glyph name="uni00B5" format="1">
  <advance width="1192"/>
  <unicode hex="00B5"/>
  <outline>
    <contour>
      <point x="150" y="642" type="line"/>
      <point x="150" y="-284" type="line"/>
      <point x="314" y="-284" type="line"/>
      <point x="314" y="642" type="line"/>
    </contour>
    <component base="u"/>
  </outline>
</glyph>
<glyph name="periodcentered" format="1">
  <advance width="653"/>
  <unicode hex="00B7"/>
  <outline>
    <contour>
      <point x="318" y="514" type="curve" smooth="yes"/>
      <point x="381" y="514"/>
      <point x="429" y="559"/>
      <point x="429" y="624" type="curve" smooth="yes"/>
      <point x="429" y="688"/>
      <point x="381" y="732"/>
      <point x="318" y="732" type="curve" smooth="yes"/>
      <point x="254" y="732"/>
      <point x="207" y="688"/>
      <point x="207" y="624" type="curve" smooth="yes"/>
      <point x="207" y="559"/>
      <point x="254" y="514"/>
    </contour>
    <contour>
      <point x="-1" y="623" type="move" name="_mid"/>
    </contour>
  </outline>
</glyph>
<glyph name="guillemotright" format="1">
  <advance width="994"/>
  <unicode hex="00BB"/>
  <outline>
    <contour>
      <point x="250" y="148" type="line"/>
      <point x="534" y="549" type="line"/>
      <point x="247" y="953" type="line"/>
      <point x="86" y="953" type="line"/>
      <point x="370" y="552" type="line"/>
      <point x="93" y="148" type="line"/>
    </contour>
    <contour>
      <point x="603" y="148" type="line"/>
      <point x="887" y="549" type="line"/>
      <point x="599" y="953" type="line"/>
      <point x="438" y="953" type="line"/>
      <point x="722" y="552" type="line"/>
      <point x="446" y="148" type="line"/>
    </contour>
  </outline>
</glyph>
<glyph name="threequarters" format="1">
  <advance width="1752"/>
  <unicode hex="00BE"/>
  <outline>
    <contour>
      <point x="355" y="594" type="curve" smooth="yes"/>
      <point x="500" y="594"/>
      <point x="634" y="677"/>
      <point x="634" y="855" type="curve" smooth="yes"/>
      <point x="634" y="952"/>
      <point x="575" y="1031"/>
      <point x="471" y="1062" type="curve"/>
      <point x="576" y="1087"/>
      <point x="614" y="1189"/>
      <point x="614" y="1261" type="curve" smooth="yes"/>
      <point x="614" y="1408"/>
      <point x="493" y="1477"/>
      <point x="360" y="1477" type="curve" smooth="yes"/>
      <point x="276" y="1477"/>
      <point x="188" y="1449"/>
      <point x="122" y="1396" type="curve"/>
      <point x="172" y="1304" type="line"/>
      <point x="239" y="1344"/>
      <point x="302" y="1363"/>
      <point x="355" y="1363" type="curve" smooth="yes"/>
      <point x="432" y="1363"/>
      <point x="484" y="1322"/>
      <point x="484" y="1242" type="curve" smooth="yes"/>
      <point x="484" y="1160"/>
      <point x="421" y="1110"/>
      <point x="327" y="1110" type="curve" smooth="yes"/>
      <point x="236" y="1110" type="line"/>
      <point x="236" y="997" type="line"/>
      <point x="330" y="997" type="line" smooth="yes"/>
      <point x="445" y="997"/>
      <point x="503" y="948"/>
      <point x="503" y="850" type="curve" smooth="yes"/>
      <point x="503" y="749"/>
      <point x="439" y="708"/>
      <point x="356" y="708" type="curve" smooth="yes"/>
      <point x="297" y="708"/>
      <point x="228" y="730"/>
      <point x="169" y="766" type="curve"/>
      <point x="124" y="669" type="line"/>
      <point x="190" y="620"/>
      <point x="275" y="594"/>
    </contour>
    <contour>
      <point x="1435" y="0" type="line"/>
      <point x="1562" y="0" type="line"/>
      <point x="1562" y="191" type="line"/>
      <point x="1684" y="191" type="line"/>
      <point x="1676" y="297" type="line"/>
      <point x="1563" y="297" type="line"/>
      <point x="1563" y="857" type="line"/>
      <point x="1425" y="857" type="line"/>
      <point x="1030" y="284" type="line"/>
      <point x="1030" y="191" type="line"/>
      <point x="1435" y="191" type="line"/>
    </contour>
    <contour>
      <point x="430" y="0" type="line"/>
      <point x="562" y="0" type="line"/>
      <point x="1469" y="1476" type="line"/>
      <point x="1338" y="1476" type="line"/>
    </contour>
    <contour>
      <point x="1169" y="297" type="line"/>
      <point x="1434" y="690" type="line"/>
      <point x="1434" y="297" type="line"/>
    </contour>
  </outline>
</glyph>
<glyph name="eth" format="1">
  <advance width="1221"/>
  <unicode hex="00F0"/>
  <outline>
    <contour>
      <point x="229" y="1587" type="line"/>
      <point x="445" y="1382" type="line"/>
      <point x="221" y="1294" type="line"/>
      <point x="268" y="1184" type="line"/>
      <point x="524" y="1285" type="line"/>
      <point x="706" y="1104"/>
      <point x="806" y="970"/>
      <point x="859" y="870" type="curve"/>
      <point x="799" y="916"/>
      <point x="733" y="977"/>
      <point x="585" y="977" type="curve" smooth="yes"/>
      <point x="305" y="977"/>
      <point x="105" y="782"/>
      <point x="105" y="490" type="curve" smooth="yes"/>
      <point x="105" y="222"/>
      <point x="276" y="-20"/>
      <point x="600" y="-20" type="curve" smooth="yes"/>
      <point x="932" y="-20"/>
      <point x="1095" y="203"/>
      <point x="1095" y="492" type="curve" smooth="yes"/>
      <point x="1095" y="630"/>
      <point x="1061" y="771"/>
      <point x="1010" y="872" type="curve" smooth="yes"/>
      <point x="944" y="1001"/>
      <point x="845" y="1132"/>
      <point x="653" y="1340" type="curve"/>
      <point x="906" y="1437" type="line"/>
      <point x="858" y="1544" type="line"/>
      <point x="569" y="1432" type="line"/>
      <point x="414" y="1587" type="line"/>
    </contour>
    <contour>
      <point x="947" y="499" type="curve" smooth="yes"/>
      <point x="947" y="263"/>
      <point x="831" y="109"/>
      <point x="606" y="109" type="curve" smooth="yes"/>
      <point x="375" y="109"/>
      <point x="264" y="295"/>
      <point x="264" y="489" type="curve" smooth="yes"/>
      <point x="264" y="697"/>
      <point x="388" y="854"/>
      <point x="600" y="854" type="curve" smooth="yes"/>
      <point x="824" y="854"/>
      <point x="947" y="681"/>
    </contour>
  </outline>
</glyph>
<glyph name="oslash" format="1">
  <advance width="1192"/>
  <unicode hex="00F8"/>
  <outline>
    <contour>
      <point x="86" y="-124" type="line"/>
      <point x="151" y="-162" type="line"/>
      <point x="876" y="1200" type="line"/>
      <point x="805" y="1238" type="line"/>
    </contour>
    <component base="o" xOffset="-101.118"/>
  </outline>
</glyph>
<glyph name="kgreenlandic" format="1">
  <advance width="1079"/>
  <unicode hex="0138"/>
  <outline>
    <contour>
      <point x="156" y="0" type="line"/>
      <point x="320" y="0" type="line"/>
      <point x="320" y="438" type="line"/>
      <point x="291" y="372" type="line"/>
      <point x="475" y="529" type="line"/>
      <point x="423" y="538" type="line"/>
      <point x="869" y="0" type="line"/>
      <point x="1048" y="0" type="line"/>
      <point x="1048" y="24" type="line"/>
      <point x="536" y="621" type="line"/>
      <point x="532" y="556" type="line"/>
      <point x="1014" y="1058" type="line"/>
      <point x="1014" y="1082" type="line"/>
      <point x="825" y="1082" type="line"/>
      <point x="279" y="499" type="line"/>
      <point x="313" y="486" type="line"/>
      <point x="320" y="757" type="line"/>
      <point x="320" y="1082" type="line"/>
      <point x="156" y="1082" type="line"/>
    </contour>
  </outline>
</glyph>
<glyph name="eng" format="1">
  <advance width="1192"/>
  <unicode hex="014B"/>
  <outline>
    <contour>
      <point x="875" y="120" type="line"/>
      <point x="875" y="-10" type="line"/>
      <point x="874" y="-225"/>
      <point x="838" y="-294"/>
      <point x="453" y="-294" type="curve"/>
      <point x="453" y="-427" type="line"/>
      <point x="895" y="-427"/>
      <point x="1039" y="-341"/>
      <point x="1039" y="-10" type="curve"/>
      <point x="1039" y="120" type="line"/>
    </contour>
    <component base="n"/>
  </outline>
</glyph>
<glyph name="OE" format="1">
  <advance width="2367"/>
  <unicode hex="0152"/>
  <outline>
    <contour>
      <point x="147" y="721" type="curve" smooth="yes"/>
      <point x="147" y="269"/>
      <point x="351" y="-20"/>
      <point x="798" y="-20" type="curve" smooth="yes"/>
      <point x="1007" y="-20"/>
      <point x="1172" y="56"/>
      <point x="1268" y="192" type="curve"/>
      <point x="1268" y="0" type="line"/>
      <point x="2222" y="0" type="line"/>
      <point x="2234" y="137" type="line"/>
      <point x="1444" y="137" type="line"/>
      <point x="1444" y="686" type="line"/>
      <point x="2151" y="686" type="line"/>
      <point x="2151" y="822" type="line"/>
      <point x="1444" y="822" type="line"/>
      <point x="1444" y="1321" type="line"/>
      <point x="2213" y="1321" type="line"/>
      <point x="2219" y="1456" type="line"/>
      <point x="1268" y="1456" type="line"/>
      <point x="1268" y="1257" type="line"/>
      <point x="1171" y="1398"/>
      <point x="1004" y="1476"/>
      <point x="799" y="1476" type="curve" smooth="yes"/>
      <point x="361" y="1476"/>
      <point x="147" y="1184"/>
    </contour>
    <contour>
      <point x="1267" y="720" type="curve" smooth="yes"/>
      <point x="1267" y="365"/>
      <point x="1146" y="122"/>
      <point x="796" y="122" type="curve" smooth="yes"/>
      <point x="446" y="122"/>
      <point x="324" y="365"/>
      <point x="324" y="720" type="curve" smooth="yes"/>
      <point x="324" y="1091"/>
      <point x="458" y="1334"/>
      <point x="798" y="1334" type="curve" smooth="yes"/>
      <point x="1139" y="1334"/>
      <point x="1267" y="1089"/>
    </contour>
  </outline>
</glyph>
<glyph name="emdash" format="1">
  <advance width="600"/>
  <unicode hex="2014"/>
  <outline>
    <contour>
      <point x="-726" y="521" type="line"/>
      <point x="1271" y="521" type="line"/>
      <point x="1271" y="658" type="line"/>
      <point x="-726" y="658" type="line"/>
    </contour>
  </outline>
</glyph>
<glyph name="quoteright" format="1">
  <advance width="653"/>
  <unicode hex="2019"/>
  <outline>
    <contour>
      <point x="194" y="948" type="line"/>
      <point x="309" y="948" type="line"/>
      <point x="491" y="1473" type="line"/>
      <point x="297" y="1473" type="line"/>
    </contour>
  </outline>
</glyph>
<glyph name="quotedblleft" format="1">
  <advance width="937"/>
  <unicode hex="201C"/>
  <outline>
    <contour>
      <point x="164" y="951" type="line"/>
      <point x="358" y="951" type="line"/>
      <point x="461" y="1476" type="line"/>
      <point x="346" y="1476" type="line"/>
    </contour>
    <contour>
      <point x="474" y="951" type="line"/>
      <point x="668" y="951" type="line"/>
      <point x="771" y="1476" type="line"/>
      <point x="656" y="1476" type="line"/>
    </contour>
    <component base="quotedblright" xOffset="13894.5" yOffset="2408"/>
  </outline>
</glyph>
<glyph name="quotedblright" format="1">
  <advance width="880"/>
  <unicode hex="201D"/>
  <outline>
    <contour>
      <point x="175" y="948" type="line"/>
      <point x="290" y="948" type="line"/>
      <point x="472" y="1473" type="line"/>
      <point x="278" y="1473" type="line"/>
    </contour>
    <contour>
      <point x="498" y="948" type="line"/>
      <point x="613" y="948" type="line"/>
      <point x="795" y="1473" type="line"/>
      <point x="601" y="1473" type="line"/>
    </contour>
  </outline>
</glyph>
<glyph name="quotedblbase" format="1">
  <advance width="795"/>
  <unicode hex="201E"/>
  <outline>
    <contour>
      <point x="144" y="-248" type="line"/>
      <point x="242" y="-248" type="line"/>
      <point x="362" y="215" type="line"/>
      <point x="226" y="215" type="line"/>
    </contour>
    <contour>
      <point x="406" y="-248" type="line"/>
      <point x="502" y="-248" type="line"/>
      <point x="627" y="215" type="line"/>
      <point x="487" y="215" type="line"/>
    </contour>
  </outline>
</glyph>
<glyph name="bullet" format="1">
  <advance width="908"/>
  <unicode hex="2022"/>
  <outline>
    <contour>
      <point x="443" y="413" type="curve" smooth="yes"/>
      <point x="608" y="413"/>
      <point x="761" y="534"/>
      <point x="761" y="745" type="curve" smooth="yes"/>
      <point x="761" y="955"/>
      <point x="612" y="1074"/>
      <point x="448" y="1074" type="curve" smooth="yes"/>
      <point x="283" y="1074"/>
      <point x="131" y="952"/>
      <point x="131" y="740" type="curve" smooth="yes"/>
      <point x="131" y="531"/>
      <point x="279" y="413"/>
    </contour>
  </outline>
</glyph>
<glyph name="guilsinglleft" format="1">
  <advance width="600"/>
  <unicode hex="2039"/>
  <outline>
    <contour>
      <point x="370" y="148" type="line"/>
      <point x="527" y="148" type="line"/>
      <point x="251" y="552" type="line"/>
      <point x="535" y="953" type="line"/>
      <point x="374" y="953" type="line"/>
      <point x="86" y="549" type="line"/>
    </contour>
  </outline>
</glyph>
<glyph name="Euro" format="1">
  <advance width="1391"/>
  <unicode hex="20AC"/>
  <outline>
    <contour>
      <point x="-49" y="528" type="line"/>
      <point x="808" y="528" type="line"/>
      <point x="816" y="639" type="line"/>
      <point x="211" y="639" type="line"/>
      <point x="211" y="819" type="line"/>
      <point x="816" y="819" type="line"/>
      <point x="824" y="927" type="line"/>
      <point x="-36" y="927" type="line"/>
      <point x="-42" y="819" type="line"/>
      <point x="125" y="819" type="line"/>
      <point x="125" y="639" type="line"/>
      <point x="-41" y="639" type="line"/>
    </contour>
    <component base="C" xOffset="-78.6"/>
  </outline>
</glyph>
<glyph name="estimated" format="1">
  <advance width="1223"/>
  <unicode hex="212E"/>
  <outline>
    <contour>
      <point x="105" y="541" type="curve" smooth="yes"/>
      <point x="105" y="221"/>
      <point x="293" y="-20"/>
      <point x="676" y="-20" type="curve" smooth="yes"/>
      <point x="883" y="-20"/>
      <point x="1018" y="70"/>
      <point x="1118" y="188" type="curve"/>
      <point x="1066" y="239" type="line"/>
      <point x="968" y="134"/>
      <point x="856" y="53"/>
      <point x="676" y="53" type="curve" smooth="yes"/>
      <point x="446" y="53"/>
      <point x="324" y="245"/>
      <point x="323" y="521" type="curve"/>
      <point x="1126" y="521" type="line"/>
      <point x="1126" y="869"/>
      <point x="978" y="1102"/>
      <point x="658" y="1102" type="curve" smooth="yes"/>
      <point x="335" y="1102"/>
      <point x="105" y="861"/>
    </contour>
    <contour>
      <point x="1014" y="601" type="curve"/>
      <point x="325" y="601" type="line"/>
      <point x="340" y="863"/>
      <point x="491" y="1042"/>
      <point x="664" y="1042" type="curve" smooth="yes"/>
      <point x="873" y="1042"/>
      <point x="1014" y="836"/>
    </contour>
  </outline>
</glyph>
<glyph name="infinity" format="1">
  <advance width="1647"/>
  <unicode hex="221E"/>
  <outline>
    <contour>
      <point x="822" y="737" type="curve"/>
      <point x="702" y="900"/>
      <point x="579" y="1009"/>
      <point x="412" y="1009" type="curve" smooth="yes"/>
      <point x="220" y="1009"/>
      <point x="67" y="851"/>
      <point x="67" y="652" type="curve" smooth="yes"/>
      <point x="67" y="434"/>
      <point x="195" y="247"/>
      <point x="416" y="247" type="curve" smooth="yes"/>
      <point x="579" y="247"/>
      <point x="705" y="360"/>
      <point x="822" y="518" type="curve"/>
      <point x="955" y="336"/>
      <point x="1077" y="247"/>
      <point x="1225" y="247" type="curve" smooth="yes"/>
      <point x="1419" y="247"/>
      <point x="1571" y="406"/>
      <point x="1571" y="634" type="curve" smooth="yes"/>
      <point x="1571" y="852"/>
      <point x="1448" y="1009"/>
      <point x="1227" y="1009" type="curve" smooth="yes"/>
      <point x="1057" y="1009"/>
      <point x="934" y="895"/>
    </contour>
    <contour>
      <point x="752" y="629" type="curve"/>
      <point x="660" y="491"/>
      <point x="547" y="374"/>
      <point x="418" y="374" type="curve" smooth="yes"/>
      <point x="274" y="374"/>
      <point x="178" y="502"/>
      <point x="178" y="631" type="curve" smooth="yes"/>
      <point x="178" y="769"/>
      <point x="267" y="886"/>
      <point x="411" y="886" type="curve" smooth="yes"/>
      <point x="551" y="886"/>
      <point x="661" y="776"/>
    </contour>
    <contour>
      <point x="1451" y="657" type="curve" smooth="yes"/>
      <point x="1451" y="499"/>
      <point x="1379" y="374"/>
      <point x="1227" y="374" type="curve" smooth="yes"/>
      <point x="1103" y="374"/>
      <point x="1012" y="463"/>
      <point x="892" y="631" type="curve"/>
      <point x="979" y="763"/>
      <point x="1088" y="886"/>
      <point x="1223" y="886" type="curve" smooth="yes"/>
      <point x="1356" y="886"/>
      <point x="1451" y="781"/>
    </contour>
  </outline>
</glyph>
<glyph name=".notdef" format="1">
  <advance width="1164"/>
  <outline>
    <contour>
      <point x="285" y="188" type="line"/>
      <point x="285" y="890" type="line"/>
      <point x="867" y="890" type="line"/>
      <point x="867" y="188" type="line"/>
    </contour>
    <contour>
      <point x="188" y="89" type="line"/>
      <point x="963" y="89" type="line"/>
      <point x="963" y="989" type="line"/>
      <point x="188" y="989" type="line"/>
    </contour>
  </outline>
</glyph>
<glyph name="slashbar" format="1">
  <advance width="908"/>
  <outline>
    <contour>
      <point x="188" y="490" type="line"/>
      <point x="773" y="825" type="line"/>
      <point x="773" y="947" type="line"/>
      <point x="188" y="612" type="line"/>
    </contour>
    <contour>
      <point x="488" y="721" type="move" name="_mid"/>
    </contour>
  </outline>
</glyph>
<glyph name="twosuperior" format="1">
  <advance width="852"/>
  <outline>
    <contour>
      <point x="165" y="605" type="line"/>
      <point x="686" y="605" type="line"/>
      <point x="692" y="719" type="line"/>
      <point x="331" y="719" type="line"/>
      <point x="502" y="886" type="line" smooth="yes"/>
      <point x="626" y="1007"/>
      <point x="700" y="1079"/>
      <point x="700" y="1220" type="curve" smooth="yes"/>
      <point x="700" y="1387"/>
      <point x="565" y="1476"/>
      <point x="413" y="1476" type="curve" smooth="yes"/>
      <point x="298" y="1476"/>
      <point x="177" y="1417"/>
      <point x="124" y="1321" type="curve"/>
      <point x="196" y="1242" type="line"/>
      <point x="254" y="1321"/>
      <point x="337" y="1356"/>
      <point x="415" y="1356" type="curve" smooth="yes"/>
      <point x="497" y="1356"/>
      <point x="568" y="1310"/>
      <point x="568" y="1212" type="curve" smooth="yes"/>
      <point x="568" y="1141"/>
      <point x="528" y="1079"/>
      <point x="413" y="963" type="curve" smooth="yes"/>
      <point x="165" y="715" type="line"/>
    </contour>
  </outline>
</glyph>
